<svg width="38" height="13" viewBox="0 0 38 13" fill="none" xmlns="http://www.w3.org/2000/svg">
<path d="M1.75586 1.07031H3.47266V2.59375H1.75586V1.07031ZM1.75586 10.3867V3.34961H3.47266V10.7559C3.47266 11.3301 3.26758 11.7969 2.85742 12.1562C2.45117 12.5195 1.88477 12.7012 1.1582 12.7012C0.791016 12.7012 0.470703 12.6406 0.197266 12.5195V10.8262C0.462891 10.9941 0.75 11.0781 1.05859 11.0781C1.27344 11.0781 1.44336 11.0137 1.56836 10.8848C1.69336 10.7598 1.75586 10.5938 1.75586 10.3867ZM10.0293 3.34961H11.3477V10H10.0293L9.88281 9.39062C9.41016 9.92578 8.78711 10.1934 8.01367 10.1934C7.08398 10.1934 6.28906 9.86133 5.62891 9.19727C4.96875 8.5332 4.63867 7.69336 4.63867 6.67773C4.63867 5.66211 4.96875 4.82227 5.62891 4.1582C6.28906 3.49414 7.08398 3.16211 8.01367 3.16211C8.77539 3.16211 9.4043 3.43359 9.90039 3.97656L10.0293 3.34961ZM8.16016 8.53516C8.65625 8.53516 9.07227 8.35938 9.4082 8.00781C9.74414 7.65625 9.91211 7.21289 9.91211 6.67773C9.91211 6.13867 9.74414 5.69141 9.4082 5.33594C9.07227 4.98047 8.65625 4.80273 8.16016 4.80273C7.67188 4.80273 7.26367 4.97852 6.93555 5.33008C6.60742 5.68164 6.44336 6.13086 6.44336 6.67773C6.44336 7.21289 6.60742 7.65625 6.93555 8.00781C7.26367 8.35938 7.67188 8.53516 8.16016 8.53516ZM17.9043 3.34961H19.2227V10H17.9043L17.7578 9.39062C17.2852 9.92578 16.6621 10.1934 15.8887 10.1934C14.959 10.1934 14.1641 9.86133 13.5039 9.19727C12.8438 8.5332 12.5137 7.69336 12.5137 6.67773C12.5137 5.66211 12.8438 4.82227 13.5039 4.1582C14.1641 3.49414 14.959 3.16211 15.8887 3.16211C16.6504 3.16211 17.2793 3.43359 17.7754 3.97656L17.9043 3.34961ZM16.0352 8.53516C16.5312 8.53516 16.9473 8.35938 17.2832 8.00781C17.6191 7.65625 17.7871 7.21289 17.7871 6.67773C17.7871 6.13867 17.6191 5.69141 17.2832 5.33594C16.9473 4.98047 16.5312 4.80273 16.0352 4.80273C15.5469 4.80273 15.1387 4.97852 14.8105 5.33008C14.4824 5.68164 14.3184 6.13086 14.3184 6.67773C14.3184 7.21289 14.4824 7.65625 14.8105 8.00781C15.1387 8.35938 15.5469 8.53516 16.0352 8.53516ZM22.709 3.34961H24.1328V5.06641H22.7676V12.6426H21.0508V5.06641H20.2012V3.34961H20.9922C20.9531 3.19727 20.9336 3.00195 20.9336 2.76367C20.9336 2.24414 21.1309 1.81055 21.5254 1.46289C21.9199 1.11523 22.457 0.941406 23.1367 0.941406C23.4961 0.941406 23.8086 0.996094 24.0742 1.10547V2.72852C23.8438 2.52148 23.5879 2.41797 23.3066 2.41797C23.084 2.41797 22.9121 2.47656 22.791 2.59375C22.6699 2.70703 22.6094 2.84766 22.6094 3.01562C22.6133 3.17578 22.6465 3.28711 22.709 3.34961ZM30.1504 3.34961H31.4688V10H30.1504L30.0039 9.39062C29.5312 9.92578 28.9082 10.1934 28.1348 10.1934C27.2051 10.1934 26.4102 9.86133 25.75 9.19727C25.0898 8.5332 24.7598 7.69336 24.7598 6.67773C24.7598 5.66211 25.0898 4.82227 25.75 4.1582C26.4102 3.49414 27.2051 3.16211 28.1348 3.16211C28.8965 3.16211 29.5254 3.43359 30.0215 3.97656L30.1504 3.34961ZM28.2812 8.53516C28.7773 8.53516 29.1934 8.35938 29.5293 8.00781C29.8652 7.65625 30.0332 7.21289 30.0332 6.67773C30.0332 6.13867 29.8652 5.69141 29.5293 5.33594C29.1934 4.98047 28.7773 4.80273 28.2812 4.80273C27.793 4.80273 27.3848 4.97852 27.0566 5.33008C26.7285 5.68164 26.5645 6.13086 26.5645 6.67773C26.5645 7.21289 26.7285 7.65625 27.0566 8.00781C27.3848 8.35938 27.793 8.53516 28.2812 8.53516ZM35.916 3.16211C36.459 3.16211 36.8789 3.31445 37.1758 3.61914C37.4766 3.91992 37.627 4.33203 37.627 4.85547C37.627 5.375 37.5039 5.83008 37.2578 6.2207H35.5527C35.791 5.91602 35.9121 5.58398 35.916 5.22461C35.916 4.94336 35.791 4.80273 35.541 4.80273C35.3262 4.80273 35.1445 4.91016 34.9961 5.125C34.8477 5.33594 34.7734 5.68555 34.7734 6.17383V10H33.0566V3.34961H34.2227L34.4043 3.81836C34.8184 3.38086 35.3223 3.16211 35.916 3.16211Z" fill="#010816"/>
</svg>
